<svg width="30" height="30" viewBox="0 0 30 30" fill="none" xmlns="http://www.w3.org/2000/svg">
<path fill-rule="evenodd" clip-rule="evenodd" d="M6.28571 2.78577H1V6.28577C1 10.1518 4.13401 13.2858 8 13.2858H13.2857V9.78577C13.2857 5.91977 10.1517 2.78577 6.28571 2.78577ZM0 1.78577V6.28577C0 10.704 3.58173 14.2858 8 14.2858H14.2857V9.78577C14.2857 5.36749 10.704 1.78577 6.28571 1.78577H0Z" fill="#897942"/>
<path fill-rule="evenodd" clip-rule="evenodd" d="M22 16.7142H16.7143V20.2142C16.7143 24.0802 19.8483 27.2142 23.7143 27.2142H29V23.7142C29 19.8482 25.866 16.7142 22 16.7142ZM15.7143 15.7142V20.2142C15.7143 24.6325 19.296 28.2142 23.7143 28.2142H30V23.7142C30 19.296 26.4183 15.7142 22 15.7142H15.7143Z" fill="#897942"/>
<path fill-rule="evenodd" clip-rule="evenodd" d="M27.2143 1H23.7143C19.8483 1 16.7143 4.13401 16.7143 8V13.2857H20.2143C24.0803 13.2857 27.2143 10.1517 27.2143 6.28571V1ZM23.7143 0C19.296 0 15.7143 3.58173 15.7143 8V14.2857H20.2143C24.6326 14.2857 28.2143 10.704 28.2143 6.28571V0H23.7143Z" fill="#897942"/>
<path fill-rule="evenodd" clip-rule="evenodd" d="M13.2857 16.7142H9.78571C5.91971 16.7142 2.78571 19.8482 2.78571 23.7142V28.9999H6.28571C10.1517 28.9999 13.2857 25.8659 13.2857 21.9999V16.7142ZM9.78571 15.7142C5.36743 15.7142 1.78571 19.296 1.78571 23.7142V29.9999H6.28571C10.704 29.9999 14.2857 26.4182 14.2857 21.9999V15.7142H9.78571Z" fill="#897942"/>
</svg>